<svg width="60" height="60" viewBox="0 0 60 60" fill="none" xmlns="http://www.w3.org/2000/svg">
<path d="M30 6C23.6348 6 17.5303 8.52856 13.0294 13.0294C8.52856 17.5303 6 23.6348 6 30C6 36.3652 8.52856 42.4697 13.0294 46.9706C17.5303 51.4714 23.6348 54 30 54C36.3652 54 42.4697 51.4714 46.9706 46.9706C51.4714 42.4697 54 36.3652 54 30C54 23.6348 51.4714 17.5303 46.9706 13.0294C42.4697 8.52856 36.3652 6 30 6ZM0 30C0 13.431 13.431 0 30 0C46.569 0 60 13.431 60 30C60 46.569 46.569 60 30 60C13.431 60 0 46.569 0 30ZM17.379 17.379C17.9416 16.8166 18.7045 16.5006 19.5 16.5006C20.2955 16.5006 21.0584 16.8166 21.621 17.379L30 25.758L38.379 17.379C38.6557 17.0925 38.9868 16.8639 39.3528 16.7067C39.7188 16.5495 40.1125 16.4667 40.5108 16.4632C40.9091 16.4598 41.3042 16.5357 41.6729 16.6865C42.0415 16.8374 42.3765 17.0601 42.6582 17.3418C42.9399 17.6235 43.1626 17.9584 43.3135 18.3271C43.4643 18.6958 43.5402 19.0909 43.5368 19.4892C43.5333 19.8875 43.4505 20.2812 43.2933 20.6472C43.1361 21.0132 42.9075 21.3443 42.621 21.621L34.242 30L42.621 38.379C43.1675 38.9448 43.4699 39.7026 43.463 40.4892C43.4562 41.2758 43.1407 42.0282 42.5845 42.5845C42.0282 43.1407 41.2758 43.4562 40.4892 43.463C39.7026 43.4699 38.9448 43.1675 38.379 42.621L30 34.242L21.621 42.621C21.0552 43.1675 20.2974 43.4699 19.5108 43.463C18.7242 43.4562 17.9718 43.1407 17.4155 42.5845C16.8593 42.0282 16.5438 41.2758 16.537 40.4892C16.5301 39.7026 16.8325 38.9448 17.379 38.379L25.758 30L17.379 21.621C16.8166 21.0584 16.5006 20.2955 16.5006 19.5C16.5006 18.7045 16.8166 17.9416 17.379 17.379Z" fill="#45A29E"/>
</svg>
